<svg xmlns="http://www.w3.org/2000/svg" width="170" height="28" viewBox="0 0 170 28" role="img" aria-label="Open in Google Docs">
  <title>Open in Google Docs</title>
  <defs>
    <linearGradient id="g" x1="0" y1="0" x2="1" y2="1">
      <stop offset="0%" stop-color="#4285F4"/>
      <stop offset="100%" stop-color="#1A73E8"/>
    </linearGradient>
  </defs>

  <rect x="0.5" y="0.5" width="169" height="27" rx="6" fill="#ffffff" stroke="#DADCE0"/>

  <!-- Google Docs icon -->
  <g transform="translate(8,5)">
    <path d="M3 0h10l5 5v13a2 2 0 0 1-2 2H3a2 2 0 0 1-2-2V2a2 2 0 0 1 2-2z" fill="url(#g)"/>
    <path d="M13 0v5h5z" fill="#AECBFA"/>
    <rect x="5" y="8" width="9" height="1.4" rx=".7" fill="#ffffff"/>
    <rect x="5" y="11" width="9" height="1.4" rx=".7" fill="#ffffff"/>
    <rect x="5" y="14" width="6.5" height="1.4" rx=".7" fill="#ffffff"/>
  </g>

  <text x="34" y="18.5"
        font-family="-apple-system,BlinkMacSystemFont,'Segoe UI',Roboto,Helvetica,Arial,sans-serif"
        font-size="13"
        font-weight="600"
        fill="#202124">Open in Google Docs</text>
</svg>
